<?xml version="1.0" encoding="UTF-8" standalone="no"?>
<!DOCTYPE svg PUBLIC "-//W3C//DTD SVG 1.1//EN"
 "http://www.w3.org/Graphics/SVG/1.1/DTD/svg11.dtd">
<!-- Generated by graphviz version 2.42.3 ()
 -->
<!-- Title: graphname Pages: 1 -->
<svg width="584pt" height="939pt"
 viewBox="0.00 0.00 584.00 939.00" xmlns="http://www.w3.org/2000/svg" xmlns:xlink="http://www.w3.org/1999/xlink">
<g id="graph0" class="graph" transform="scale(1 1) rotate(0) translate(4 935)">
<title>graphname</title>
<polygon fill="#fafafa" stroke="transparent" points="-4,4 -4,-935 580,-935 580,4 -4,4"/>
<g id="clust1" class="cluster">
<title>cluster_aws</title>
<polygon fill="#f5f5f5" stroke="#f5f5f5" points="8,-8 8,-923 568,-923 568,-8 8,-8"/>
<text text-anchor="start" x="243" y="-23" font-family="Helvetica,sans-Serif" font-weight="bold" font-size="20.00" fill="#707070">Provider aws</text>
</g>
<g id="clust2" class="cluster">
<title>cluster_aws_</title>
<polygon fill="#eeeeee" stroke="#eeeeee" points="16,-242 16,-915 560,-915 560,-242 16,-242"/>
<text text-anchor="start" x="284" y="-246.2" font-family="Helvetica,sans-Serif" font-size="1.00" fill="#383838"> </text>
</g>
<g id="clust3" class="cluster">
<title>cluster_aws_EKS</title>
<polygon fill="#eeeeee" stroke="#eeeeee" points="68.5,-54 68.5,-234 221.5,-234 221.5,-54 68.5,-54"/>
<text text-anchor="start" x="133.5" y="-65" font-family="Helvetica,sans-Serif" font-weight="bold" font-size="20.00" fill="#383838">EKS</text>
</g>
<!-- NetworkAcl::::acl&#45;dd3a31a0 -->
<g id="node1" class="node">
<title>NetworkAcl::::acl&#45;dd3a31a0</title>
<polygon fill="#e5e5e5" stroke="#dddddd" points="202.5,-687 87.5,-687 87.5,-629 202.5,-629 202.5,-687"/>
<text text-anchor="start" x="100" y="-667.2" font-family="Helvetica,sans-Serif" font-weight="bold" font-size="16.00" fill="#707070">NetworkAcl</text>
<text text-anchor="start" x="100" y="-642.2" font-family="Helvetica,sans-Serif" font-size="16.00" fill="#383838">acl&#45;dd3a31a0</text>
</g>
<!-- Vpc::::vpc&#45;904ceced -->
<g id="node5" class="node">
<title>Vpc::::vpc&#45;904ceced</title>
<polygon fill="#e5e5e5" stroke="#dddddd" points="552,-565 475,-565 475,-507 552,-507 552,-565"/>
<text text-anchor="start" x="487.5" y="-545.2" font-family="Helvetica,sans-Serif" font-weight="bold" font-size="16.00" fill="#707070">Vpc</text>
<text text-anchor="start" x="487.5" y="-520.2" font-family="Helvetica,sans-Serif" font-size="16.00" fill="#383838">default</text>
</g>
<!-- NetworkAcl::::acl&#45;dd3a31a0&#45;&gt;Vpc::::vpc&#45;904ceced -->
<g id="edge1" class="edge">
<title>NetworkAcl::::acl&#45;dd3a31a0&#45;&gt;Vpc::::vpc&#45;904ceced</title>
<path fill="none" stroke="#707070" d="M202.71,-652.3C225.3,-647.21 249.74,-637.71 266,-620 315.29,-566.31 245.08,-505.53 302,-460 325.77,-440.98 410.97,-448.11 439,-460 457.96,-468.04 474.43,-483.64 486.93,-498.62"/>
<polygon fill="#707070" stroke="#707070" points="484.5,-501.18 493.47,-506.83 489.98,-496.82 484.5,-501.18"/>
</g>
<!-- Subnet::::subnet&#45;c113348c -->
<g id="node7" class="node">
<title>Subnet::::subnet&#45;c113348c</title>
<polygon fill="#e5e5e5" stroke="#dddddd" points="409,-527 332,-527 332,-469 409,-469 409,-527"/>
<text text-anchor="start" x="344.5" y="-507.2" font-family="Helvetica,sans-Serif" font-weight="bold" font-size="16.00" fill="#707070">Subnet</text>
<text text-anchor="start" x="344.5" y="-482.2" font-family="Helvetica,sans-Serif" font-size="16.00" fill="#383838">default</text>
</g>
<!-- NetworkAcl::::acl&#45;dd3a31a0&#45;&gt;Subnet::::subnet&#45;c113348c -->
<g id="edge2" class="edge">
<title>NetworkAcl::::acl&#45;dd3a31a0&#45;&gt;Subnet::::subnet&#45;c113348c</title>
<path fill="none" stroke="#707070" d="M202.72,-650.4C224.65,-645 248.59,-635.78 266,-620 296.1,-592.72 274.87,-566.23 302,-536 307.88,-529.45 315.15,-523.77 322.74,-518.94"/>
<polygon fill="#707070" stroke="#707070" points="324.87,-521.75 331.71,-513.66 321.32,-515.72 324.87,-521.75"/>
</g>
<!-- Subnet::::subnet&#45;5fe2396e -->
<g id="node8" class="node">
<title>Subnet::::subnet&#45;5fe2396e</title>
<polygon fill="#e5e5e5" stroke="#dddddd" points="409,-603 332,-603 332,-545 409,-545 409,-603"/>
<text text-anchor="start" x="344.5" y="-583.2" font-family="Helvetica,sans-Serif" font-weight="bold" font-size="16.00" fill="#707070">Subnet</text>
<text text-anchor="start" x="344.5" y="-558.2" font-family="Helvetica,sans-Serif" font-size="16.00" fill="#383838">default</text>
</g>
<!-- NetworkAcl::::acl&#45;dd3a31a0&#45;&gt;Subnet::::subnet&#45;5fe2396e -->
<g id="edge7" class="edge">
<title>NetworkAcl::::acl&#45;dd3a31a0&#45;&gt;Subnet::::subnet&#45;5fe2396e</title>
<path fill="none" stroke="#707070" d="M202.61,-641.5C222.79,-635.24 245.57,-627.75 266,-620 284.62,-612.94 304.7,-604.27 322.17,-596.37"/>
<polygon fill="#707070" stroke="#707070" points="323.94,-599.41 331.59,-592.07 321.03,-593.04 323.94,-599.41"/>
</g>
<!-- Subnet::::subnet&#45;79c08e77 -->
<g id="node9" class="node">
<title>Subnet::::subnet&#45;79c08e77</title>
<polygon fill="#e5e5e5" stroke="#dddddd" points="409,-679 332,-679 332,-621 409,-621 409,-679"/>
<text text-anchor="start" x="344.5" y="-659.2" font-family="Helvetica,sans-Serif" font-weight="bold" font-size="16.00" fill="#707070">Subnet</text>
<text text-anchor="start" x="344.5" y="-634.2" font-family="Helvetica,sans-Serif" font-size="16.00" fill="#383838">default</text>
</g>
<!-- NetworkAcl::::acl&#45;dd3a31a0&#45;&gt;Subnet::::subnet&#45;79c08e77 -->
<g id="edge4" class="edge">
<title>NetworkAcl::::acl&#45;dd3a31a0&#45;&gt;Subnet::::subnet&#45;79c08e77</title>
<path fill="none" stroke="#707070" d="M202.69,-655.97C239.37,-654.66 286.61,-652.97 321.45,-651.72"/>
<polygon fill="#707070" stroke="#707070" points="321.97,-655.2 331.83,-651.35 321.72,-648.21 321.97,-655.2"/>
</g>
<!-- Subnet::::subnet&#45;7e2fbe21 -->
<g id="node10" class="node">
<title>Subnet::::subnet&#45;7e2fbe21</title>
<polygon fill="#e5e5e5" stroke="#dddddd" points="409,-755 332,-755 332,-697 409,-697 409,-755"/>
<text text-anchor="start" x="344.5" y="-735.2" font-family="Helvetica,sans-Serif" font-weight="bold" font-size="16.00" fill="#707070">Subnet</text>
<text text-anchor="start" x="344.5" y="-710.2" font-family="Helvetica,sans-Serif" font-size="16.00" fill="#383838">default</text>
</g>
<!-- NetworkAcl::::acl&#45;dd3a31a0&#45;&gt;Subnet::::subnet&#45;7e2fbe21 -->
<g id="edge6" class="edge">
<title>NetworkAcl::::acl&#45;dd3a31a0&#45;&gt;Subnet::::subnet&#45;7e2fbe21</title>
<path fill="none" stroke="#707070" d="M202.69,-675.25C239.53,-686.46 287.02,-700.9 321.9,-711.52"/>
<polygon fill="#707070" stroke="#707070" points="321.25,-714.98 331.83,-714.54 323.29,-708.28 321.25,-714.98"/>
</g>
<!-- Subnet::::subnet&#45;4914802f -->
<g id="node11" class="node">
<title>Subnet::::subnet&#45;4914802f</title>
<polygon fill="#e5e5e5" stroke="#dddddd" points="409,-831 332,-831 332,-773 409,-773 409,-831"/>
<text text-anchor="start" x="344.5" y="-811.2" font-family="Helvetica,sans-Serif" font-weight="bold" font-size="16.00" fill="#707070">Subnet</text>
<text text-anchor="start" x="344.5" y="-786.2" font-family="Helvetica,sans-Serif" font-size="16.00" fill="#383838">default</text>
</g>
<!-- NetworkAcl::::acl&#45;dd3a31a0&#45;&gt;Subnet::::subnet&#45;4914802f -->
<g id="edge3" class="edge">
<title>NetworkAcl::::acl&#45;dd3a31a0&#45;&gt;Subnet::::subnet&#45;4914802f</title>
<path fill="none" stroke="#707070" d="M186.76,-687.08C217.88,-708.94 262.06,-739.25 302,-764 308.67,-768.13 315.81,-772.36 322.85,-776.42"/>
<polygon fill="#707070" stroke="#707070" points="321.26,-779.54 331.68,-781.45 324.73,-773.46 321.26,-779.54"/>
</g>
<!-- Subnet::::subnet&#45;b1bb2990 -->
<g id="node12" class="node">
<title>Subnet::::subnet&#45;b1bb2990</title>
<polygon fill="#e5e5e5" stroke="#dddddd" points="409,-907 332,-907 332,-849 409,-849 409,-907"/>
<text text-anchor="start" x="344.5" y="-887.2" font-family="Helvetica,sans-Serif" font-weight="bold" font-size="16.00" fill="#707070">Subnet</text>
<text text-anchor="start" x="344.5" y="-862.2" font-family="Helvetica,sans-Serif" font-size="16.00" fill="#383838">default</text>
</g>
<!-- NetworkAcl::::acl&#45;dd3a31a0&#45;&gt;Subnet::::subnet&#45;b1bb2990 -->
<g id="edge5" class="edge">
<title>NetworkAcl::::acl&#45;dd3a31a0&#45;&gt;Subnet::::subnet&#45;b1bb2990</title>
<path fill="none" stroke="#707070" d="M166.06,-687.25C193.48,-725.71 245.71,-793.79 302,-840 308.5,-845.34 315.85,-850.33 323.25,-854.84"/>
<polygon fill="#707070" stroke="#707070" points="321.51,-857.87 331.91,-859.89 325.04,-851.83 321.51,-857.87"/>
</g>
<!-- Domain::::starhack.it -->
<g id="node2" class="node">
<title>Domain::::starhack.it</title>
<polygon fill="#e5e5e5" stroke="#dddddd" points="198.5,-611 91.5,-611 91.5,-553 198.5,-553 198.5,-611"/>
<text text-anchor="start" x="104" y="-591.2" font-family="Helvetica,sans-Serif" font-weight="bold" font-size="16.00" fill="#707070">Domain</text>
<text text-anchor="start" x="104" y="-566.2" font-family="Helvetica,sans-Serif" font-size="16.00" fill="#383838">starhack.it</text>
</g>
<!-- Role::::arn:aws:iam::594073614517:role/OrganizationAccountAccessRole -->
<g id="node3" class="node">
<title>Role::::arn:aws:iam::594073614517:role/OrganizationAccountAccessRole</title>
<polygon fill="#e5e5e5" stroke="#dddddd" points="266,-535 24,-535 24,-477 266,-477 266,-535"/>
<text text-anchor="start" x="36" y="-515.2" font-family="Helvetica,sans-Serif" font-weight="bold" font-size="16.00" fill="#707070">Role</text>
<text text-anchor="start" x="36" y="-490.2" font-family="Helvetica,sans-Serif" font-size="16.00" fill="#383838">OrganizationAccountAccessRole</text>
</g>
<!-- HostedZone::::/hostedzone/Z09429703J0B6XPB98IZ9 -->
<g id="node4" class="node">
<title>HostedZone::::/hostedzone/Z09429703J0B6XPB98IZ9</title>
<polygon fill="#e5e5e5" stroke="#dddddd" points="202.5,-459 87.5,-459 87.5,-401 202.5,-401 202.5,-459"/>
<text text-anchor="start" x="100" y="-439.2" font-family="Helvetica,sans-Serif" font-weight="bold" font-size="16.00" fill="#707070">HostedZone</text>
<text text-anchor="start" x="100" y="-414.2" font-family="Helvetica,sans-Serif" font-size="16.00" fill="#383838">starhack.it.</text>
</g>
<!-- InternetGateway::::igw&#45;7bdccb00 -->
<g id="node6" class="node">
<title>InternetGateway::::igw&#45;7bdccb00</title>
<polygon fill="#e5e5e5" stroke="#dddddd" points="439,-431 302,-431 302,-373 439,-373 439,-431"/>
<text text-anchor="start" x="314.5" y="-411.2" font-family="Helvetica,sans-Serif" font-weight="bold" font-size="16.00" fill="#707070">InternetGateway</text>
<text text-anchor="start" x="314.5" y="-386.2" font-family="Helvetica,sans-Serif" font-size="16.00" fill="#383838">igw&#45;7bdccb00</text>
</g>
<!-- InternetGateway::::igw&#45;7bdccb00&#45;&gt;Vpc::::vpc&#45;904ceced -->
<g id="edge8" class="edge">
<title>InternetGateway::::igw&#45;7bdccb00&#45;&gt;Vpc::::vpc&#45;904ceced</title>
<path fill="none" stroke="#707070" d="M421.51,-431.23C427.63,-435.55 433.61,-440.19 439,-445 456.7,-460.82 473.56,-481.16 486.65,-498.6"/>
<polygon fill="#707070" stroke="#707070" points="484.02,-500.92 492.77,-506.89 489.65,-496.77 484.02,-500.92"/>
</g>
<!-- Subnet::::subnet&#45;c113348c&#45;&gt;Vpc::::vpc&#45;904ceced -->
<g id="edge9" class="edge">
<title>Subnet::::subnet&#45;c113348c&#45;&gt;Vpc::::vpc&#45;904ceced</title>
<path fill="none" stroke="#707070" d="M409.29,-508.18C426.35,-512.78 446.71,-518.27 464.82,-523.15"/>
<polygon fill="#707070" stroke="#707070" points="464.04,-526.57 474.61,-525.79 465.87,-519.81 464.04,-526.57"/>
</g>
<!-- Subnet::::subnet&#45;5fe2396e&#45;&gt;Vpc::::vpc&#45;904ceced -->
<g id="edge10" class="edge">
<title>Subnet::::subnet&#45;5fe2396e&#45;&gt;Vpc::::vpc&#45;904ceced</title>
<path fill="none" stroke="#707070" d="M409.29,-563.82C426.35,-559.22 446.71,-553.73 464.82,-548.85"/>
<polygon fill="#707070" stroke="#707070" points="465.87,-552.19 474.61,-546.21 464.04,-545.43 465.87,-552.19"/>
</g>
<!-- Subnet::::subnet&#45;79c08e77&#45;&gt;Vpc::::vpc&#45;904ceced -->
<g id="edge11" class="edge">
<title>Subnet::::subnet&#45;79c08e77&#45;&gt;Vpc::::vpc&#45;904ceced</title>
<path fill="none" stroke="#707070" d="M409.15,-631.33C419.22,-625.67 429.85,-619.07 439,-612 453.94,-600.47 468.73,-585.94 481.09,-572.68"/>
<polygon fill="#707070" stroke="#707070" points="483.9,-574.79 488.07,-565.05 478.74,-570.07 483.9,-574.79"/>
</g>
<!-- Subnet::::subnet&#45;7e2fbe21&#45;&gt;Vpc::::vpc&#45;904ceced -->
<g id="edge12" class="edge">
<title>Subnet::::subnet&#45;7e2fbe21&#45;&gt;Vpc::::vpc&#45;904ceced</title>
<path fill="none" stroke="#707070" d="M409.03,-710.11C419.67,-704.3 430.62,-696.92 439,-688 469.47,-655.57 489.65,-608.16 501.02,-574.93"/>
<polygon fill="#707070" stroke="#707070" points="504.46,-575.7 504.27,-565.11 497.81,-573.5 504.46,-575.7"/>
</g>
<!-- Subnet::::subnet&#45;4914802f&#45;&gt;Vpc::::vpc&#45;904ceced -->
<g id="edge13" class="edge">
<title>Subnet::::subnet&#45;4914802f&#45;&gt;Vpc::::vpc&#45;904ceced</title>
<path fill="none" stroke="#707070" d="M409.12,-787.18C420.02,-781.35 431.09,-773.69 439,-764 484.35,-708.49 501.95,-624.38 508.61,-575.34"/>
<polygon fill="#707070" stroke="#707070" points="512.12,-575.5 509.91,-565.14 505.17,-574.61 512.12,-575.5"/>
</g>
<!-- Subnet::::subnet&#45;b1bb2990&#45;&gt;Vpc::::vpc&#45;904ceced -->
<g id="edge14" class="edge">
<title>Subnet::::subnet&#45;b1bb2990&#45;&gt;Vpc::::vpc&#45;904ceced</title>
<path fill="none" stroke="#707070" d="M409.22,-863.72C420.25,-857.88 431.37,-850.08 439,-840 499.39,-760.18 510.92,-637.69 512.64,-575.36"/>
<polygon fill="#707070" stroke="#707070" points="516.14,-575.24 512.85,-565.17 509.15,-575.1 516.14,-575.24"/>
</g>
<!-- RouteTable::::rtb&#45;461d3238 -->
<g id="node13" class="node">
<title>RouteTable::::rtb&#45;461d3238</title>
<polygon fill="#e5e5e5" stroke="#dddddd" points="202.5,-383 87.5,-383 87.5,-325 202.5,-325 202.5,-383"/>
<text text-anchor="start" x="100" y="-363.2" font-family="Helvetica,sans-Serif" font-weight="bold" font-size="16.00" fill="#707070">RouteTable</text>
<text text-anchor="start" x="100" y="-338.2" font-family="Helvetica,sans-Serif" font-size="16.00" fill="#383838">rtb&#45;461d3238</text>
</g>
<!-- RouteTable::::rtb&#45;461d3238&#45;&gt;Vpc::::vpc&#45;904ceced -->
<g id="edge17" class="edge">
<title>RouteTable::::rtb&#45;461d3238&#45;&gt;Vpc::::vpc&#45;904ceced</title>
<path fill="none" stroke="#707070" d="M202.81,-348.93C277.06,-343.47 401.99,-338.65 439,-364 482.87,-394.05 500.69,-456.03 507.84,-496.8"/>
<polygon fill="#707070" stroke="#707070" points="504.42,-497.61 509.47,-506.92 511.33,-496.49 504.42,-497.61"/>
</g>
<!-- RouteTable::::rtb&#45;461d3238&#45;&gt;InternetGateway::::igw&#45;7bdccb00 -->
<g id="edge18" class="edge">
<title>RouteTable::::rtb&#45;461d3238&#45;&gt;InternetGateway::::igw&#45;7bdccb00</title>
<path fill="none" stroke="#707070" d="M202.69,-366.17C229.76,-371.99 262.58,-379.04 291.92,-385.34"/>
<polygon fill="#707070" stroke="#707070" points="291.21,-388.77 301.73,-387.44 292.68,-381.92 291.21,-388.77"/>
</g>
<!-- Role::EKS::arn:aws:iam::594073614517:role/role&#45;cluster -->
<g id="node14" class="node">
<title>Role::EKS::arn:aws:iam::594073614517:role/role&#45;cluster</title>
<polygon fill="#e5e5e5" stroke="#dddddd" points="202.5,-226 87.5,-226 87.5,-168 202.5,-168 202.5,-226"/>
<text text-anchor="start" x="100" y="-206.2" font-family="Helvetica,sans-Serif" font-weight="bold" font-size="16.00" fill="#707070">Role</text>
<text text-anchor="start" x="100" y="-181.2" font-family="Helvetica,sans-Serif" font-size="16.00" fill="#383838">role&#45;cluster</text>
</g>
<!-- Role::EKS::arn:aws:iam::594073614517:role/role&#45;node&#45;group -->
<g id="node15" class="node">
<title>Role::EKS::arn:aws:iam::594073614517:role/role&#45;node&#45;group</title>
<polygon fill="#e5e5e5" stroke="#dddddd" points="213.5,-150 76.5,-150 76.5,-92 213.5,-92 213.5,-150"/>
<text text-anchor="start" x="89" y="-130.2" font-family="Helvetica,sans-Serif" font-weight="bold" font-size="16.00" fill="#707070">Role</text>
<text text-anchor="start" x="89" y="-105.2" font-family="Helvetica,sans-Serif" font-size="16.00" fill="#383838">role&#45;node&#45;group</text>
</g>
<!-- SecurityGroup::::sg&#45;15c54c1e -->
<g id="node16" class="node">
<title>SecurityGroup::::sg&#45;15c54c1e</title>
<polygon fill="#e5e5e5" stroke="#dddddd" points="431.5,-317 309.5,-317 309.5,-259 431.5,-259 431.5,-317"/>
<text text-anchor="start" x="321.5" y="-297.2" font-family="Helvetica,sans-Serif" font-weight="bold" font-size="16.00" fill="#707070">SecurityGroup</text>
<text text-anchor="start" x="321.5" y="-272.2" font-family="Helvetica,sans-Serif" font-size="16.00" fill="#383838">default</text>
</g>
<!-- SecurityGroup::::sg&#45;15c54c1e&#45;&gt;Vpc::::vpc&#45;904ceced -->
<g id="edge15" class="edge">
<title>SecurityGroup::::sg&#45;15c54c1e&#45;&gt;Vpc::::vpc&#45;904ceced</title>
<path fill="none" stroke="#707070" d="M409.99,-317.25C420.41,-326.54 431,-337.44 439,-349 470.95,-395.18 491.78,-457.23 502.84,-496.93"/>
<polygon fill="#707070" stroke="#707070" points="499.52,-498.03 505.51,-506.76 506.27,-496.19 499.52,-498.03"/>
</g>
<!-- SecurityGroup::::sg&#45;15c54c1e&#45;&gt;SecurityGroup::::sg&#45;15c54c1e -->
<g id="edge16" class="edge">
<title>SecurityGroup::::sg&#45;15c54c1e&#45;&gt;SecurityGroup::::sg&#45;15c54c1e</title>
<path fill="none" stroke="#707070" d="M343.88,-317.38C343.88,-327.17 352.75,-335 370.5,-335 381.87,-335 389.6,-331.79 393.69,-326.9"/>
<polygon fill="#707070" stroke="#707070" points="397.02,-327.97 397.12,-317.38 390.44,-325.59 397.02,-327.97"/>
</g>
</g>
</svg>
